<?xml version="1.0" encoding="UTF-8" standalone="no"?>
<!-- Created with Inkscape (http://www.inkscape.org/) -->

<svg
   sodipodi:docname="simpledft.svg"
   width="309mm"
   height="86mm"
   viewBox="0 0 1094.8823 304.72452"
   id="svg2"
   version="1.1"
   inkscape:version="1.1.2 (0a00cf5339, 2022-02-04)"
   xmlns:inkscape="http://www.inkscape.org/namespaces/inkscape"
   xmlns:sodipodi="http://sodipodi.sourceforge.net/DTD/sodipodi-0.dtd"
   xmlns="http://www.w3.org/2000/svg"
   xmlns:svg="http://www.w3.org/2000/svg"
   xmlns:rdf="http://www.w3.org/1999/02/22-rdf-syntax-ns#"
   xmlns:cc="http://creativecommons.org/ns#"
   xmlns:dc="http://purl.org/dc/elements/1.1/">
  <sodipodi:namedview
     id="base"
     pagecolor="#ffffff"
     bordercolor="#666666"
     borderopacity="1.0"
     inkscape:pageopacity="0.0"
     inkscape:pageshadow="2"
     inkscape:zoom="0.94236332"
     inkscape:cx="790.03499"
     inkscape:cy="237.16967"
     inkscape:document-units="px"
     inkscape:current-layer="text4411"
     showgrid="false"
     showguides="false"
     inkscape:window-width="1846"
     inkscape:window-height="1016"
     inkscape:window-x="0"
     inkscape:window-y="0"
     inkscape:window-maximized="1"
     width="280mm"
     inkscape:pagecheckerboard="0"
     inkscape:guide-bbox="true"
     units="mm">
    <sodipodi:guide
       position="551.92047,179.09334"
       orientation="0,-1"
       id="guide155693" />
  </sodipodi:namedview>
  <defs
     id="defs4" />
  <metadata
     id="metadata7">
    <rdf:RDF>
      <cc:Work
         rdf:about="">
        <dc:format>image/svg+xml</dc:format>
        <dc:type
           rdf:resource="http://purl.org/dc/dcmitype/StillImage" />
      </cc:Work>
    </rdf:RDF>
  </metadata>
  <g
     inkscape:label="Layer 1"
     inkscape:groupmode="layer"
     id="layer1"
     transform="translate(0,-758.26771)">
    <g
       style="font-style:normal;font-weight:normal;font-size:50px;line-height:125%;font-family:sans-serif;letter-spacing:0px;word-spacing:0px;fill:#000000;fill-opacity:1;stroke:none;stroke-width:1px;stroke-linecap:butt;stroke-linejoin:miter;stroke-opacity:1"
       id="text4411">
      <text
         xml:space="preserve"
         style="font-style:normal;font-variant:normal;font-weight:bold;font-stretch:normal;font-size:313.249px;line-height:1.25;font-family:Comfortaa;-inkscape-font-specification:'Comfortaa Bold';fill:#4063d8;fill-opacity:1;stroke-width:0.941315px"
         x="68.21389"
         y="1030.8113"
         id="text235371"
         transform="scale(1.0340502,0.96707104)"><tspan
           sodipodi:role="line"
           id="tspan235369"
           style="font-style:normal;font-variant:normal;font-weight:bold;font-stretch:normal;font-size:313.249px;font-family:Comfortaa;-inkscape-font-specification:'Comfortaa Bold';fill:#4063d8;fill-opacity:1;stroke-width:0.941315px"
           x="68.21389"
           y="1030.8113">s</tspan></text>
      <g
         style="font-style:normal;font-variant:normal;font-weight:300;font-stretch:normal;font-size:80px;line-height:125%;font-family:Comfortaa;-inkscape-font-specification:'Comfortaa Light';letter-spacing:0px;word-spacing:0px;fill:#7b90ff;fill-opacity:1;stroke:none;stroke-width:1px;stroke-linecap:butt;stroke-linejoin:miter;stroke-opacity:1"
         id="text4152"
         transform="matrix(6.194812,0,0,6.9479202,-957.31358,-2919.4465)">
        <path
           style="fill:#7b90ff;fill-opacity:1"
           d="m 154.55092,551.75442 c 0,-6.44902 2.75317,-11.02845 7.93215,-15.58759 5.20108,-4.57859 11.46456,-6.86791 18.79039,-6.86791 6.30772,0 11.91826,1.77299 16.83167,5.31898 0.39838,0.3507 0.59757,0.77934 0.59757,1.28592 0,0.48707 -0.1991,0.90597 -0.59757,1.25669 -0.39839,0.35068 -0.87422,0.52604 -1.42753,0.52604 -0.57545,0 -1.13982,-0.23381 -1.69314,-0.70141 -3.82888,-2.72767 -8.39924,-4.09153 -13.711,-4.09153 -6.19707,0 -15.51738,1.99704 -19.9217,5.87425 -4.38222,3.85772 -6.80084,7.53119 -6.80084,12.98656"
           id="path4157"
           inkscape:connector-curvature="0"
           sodipodi:nodetypes="csscscscssc" />
      </g>
      <path
         style="font-style:normal;font-variant:normal;font-weight:normal;font-stretch:normal;font-family:Comfortaa;-inkscape-font-specification:Comfortaa;fill:#003aa6;fill-opacity:1;stroke:none;stroke-opacity:1"
         d="m 208.94658,818.22625 q -4.95359,0 -8.55644,-3.44348 -3.45279,-3.6074 -3.45279,-8.5613 0,-4.95933 3.45279,-8.40894 3.60285,-3.60331 8.55644,-3.60331 h 72.0555 q 4.95391,0 8.40672,3.60331 3.60291,3.44961 3.60291,8.40894 0,4.9539 -3.60291,8.5613 -3.45281,3.44348 -8.40672,3.44348 z"
         id="path4426"
         inkscape:connector-curvature="0" />
      <g
         aria-label="imple"
         transform="matrix(1.0069261,0,0,0.99312298,-21.596194,-27.234725)"
         id="text11292"
         style="font-size:278.54px;line-height:1.25;letter-spacing:-21.6938px;fill:#003aa6;fill-opacity:1;stroke-width:1.45081px">
        <path
           d="m 301.88095,1032.411 c -3.15679,0 -5.75649,-1.0213 -7.79912,-3.0639 -2.04263,-2.0427 -3.06394,-4.6424 -3.06394,-7.7991 V 890.91269 c 0,-3.15679 1.02131,-5.75649 3.06394,-7.79912 2.04263,-2.04263 4.64233,-3.06394 7.79912,-3.06394 3.15679,0 5.66365,1.02131 7.52058,3.06394 2.04263,2.04263 3.06394,4.64233 3.06394,7.79912 V 1021.548 c 0,3.1567 -1.02131,5.7564 -3.06394,7.7991 -1.85693,2.0426 -4.36379,3.0639 -7.52058,3.0639 z"
           style="font-family:Comfortaa;-inkscape-font-specification:Comfortaa;fill:#003aa6;fill-opacity:1"
           id="path288685"
           sodipodi:nodetypes="sssssscsscs" />
        <path
           d="m 505.80443,878.37839 q 16.43386,0 28.96816,7.79912 12.81284,7.79912 19.77634,22.2832 7.24204,14.20554 7.24204,33.14626 v 80.21953 q 0,4.7352 -3.06394,7.7991 -2.7854,2.7854 -7.52058,2.7854 -4.73518,0 -7.79912,-2.7854 -3.06394,-3.0639 -3.06394,-7.7991 v -80.21953 q 0,-19.77634 -10.30598,-31.19648 -10.02744,-11.69868 -26.4613,-11.69868 -17.54802,0 -28.41108,11.69868 -10.86306,11.69868 -10.58452,30.6394 v 0.55708 80.21953 q 0,4.7352 -3.06394,7.7991 -2.7854,2.7854 -7.52058,2.7854 -4.73518,0 -7.79912,-2.7854 -3.06394,-3.0639 -3.06394,-7.7991 v -80.21953 q 0,-19.77634 -10.30598,-31.19648 -10.02744,-11.69868 -26.4613,-11.69868 -17.26948,0 -28.41108,11.42014 -11.14161,11.42014 -11.14161,29.2467 v 82.44785 q 0,4.7352 -3.06394,7.7991 -2.7854,2.7854 -7.52058,2.7854 -4.73518,0 -7.79912,-2.7854 -3.06394,-3.0639 -3.06394,-7.7991 V 890.91269 q 0,-4.73518 3.06394,-7.79912 3.06394,-3.06394 7.79912,-3.06394 4.73518,0 7.52058,3.06394 3.06394,3.06394 3.06394,7.79912 v 6.12788 q 7.79913,-8.91328 18.38365,-13.64846 10.86306,-5.01372 23.39736,-5.01372 15.3197,0 27.57546,6.9635 12.25576,6.9635 19.4978,19.4978 8.07766,-12.5343 20.8905,-19.4978 13.09138,-6.9635 29.2467,-6.9635 z"
           style="font-family:Comfortaa;-inkscape-font-specification:Comfortaa;fill:#003aa6;fill-opacity:1"
           id="path288687" />
        <path
           d="m 664.88273,878.65693 q 21.72612,0 39.27414,10.30598 17.82656,10.02744 27.854,27.854 10.30598,17.82656 10.30598,39.55268 0,21.72612 -10.02744,39.55268 -9.7489,17.54803 -27.01838,27.85403 -16.99094,10.0274 -38.15998,10.0274 -18.1051,0 -33.14626,-7.5206 -15.04116,-7.7991 -24.79006,-21.169 v 81.6122 q 0,4.7352 -3.06394,7.7991 -3.06394,3.064 -7.79912,3.064 -4.73518,0 -7.79912,-3.064 -2.7854,-3.0639 -2.7854,-7.7991 v -62.3929 q -0.27854,-0.8357 -0.27854,-2.5069 v -65.45691 q 0,-21.72612 10.02744,-39.55268 10.30598,-17.82656 27.854,-27.854 17.82656,-10.30598 39.55268,-10.30598 z m 0,135.64897 q 15.87678,0 28.68962,-7.5206 13.09138,-7.52055 20.33342,-20.61193 7.52058,-13.36992 7.52058,-29.80378 0,-16.43386 -7.52058,-29.52524 -7.24204,-13.36992 -20.33342,-20.8905 -12.81284,-7.79912 -28.68962,-7.79912 -15.87678,0 -28.68962,7.79912 -12.81284,7.52058 -20.33342,20.8905 -7.24204,13.09138 -7.24204,29.52524 0,4.73518 0.27854,6.9635 0.27854,0.55708 0.27854,1.3927 2.7854,21.72612 18.1051,35.65311 15.59824,13.927 37.6029,13.927 z"
           style="font-family:Comfortaa;-inkscape-font-specification:Comfortaa;fill:#003aa6;fill-opacity:1"
           id="path288689" />
        <path
           d="m 795.54997,1032.411 q -16.99094,0 -27.854,-13.3699 -10.58452,-13.6485 -10.58452,-34.81751 V 825.45578 q 0,-4.73518 3.06394,-7.52058 3.06394,-3.06394 7.52058,-3.06394 4.73518,0 7.52058,3.06394 3.06394,2.7854 3.06394,7.52058 v 158.76781 q 0,11.97722 4.73518,19.49781 5.01372,7.5206 12.5343,7.5206 h 6.9635 q 4.1781,0 6.68496,3.0639 2.50686,2.7854 2.50686,7.5206 0,4.7352 -3.62102,7.7991 -3.34248,2.7854 -8.91328,2.7854 z"
           style="font-family:Comfortaa;-inkscape-font-specification:Comfortaa;fill:#003aa6;fill-opacity:1"
           id="path288691" />
        <path
           d="m 879.42231,878.65693 q 20.61196,0 36.48874,9.7489 15.87678,9.47036 24.51152,26.4613 8.91328,16.99094 8.91328,38.71706 0,4.45664 -2.7854,7.24204 -2.7854,2.50686 -7.24204,2.50686 H 826.77825 q 2.22832,22.84028 17.82656,37.04581 15.59824,14.2056 38.9956,14.2056 10.02744,0 20.05488,-3.3425 10.30598,-3.6211 16.43386,-8.9133 3.62102,-2.78541 7.52058,-2.78541 3.06394,0 6.12788,2.22831 3.62102,3.3425 3.62102,7.5206 0,3.621 -3.06394,6.4064 -9.19182,7.7991 -23.39736,13.0914 -14.20554,5.0137 -27.29692,5.0137 -22.2832,0 -39.83122,-9.7489 -17.54802,-10.0274 -27.57546,-27.57545 -9.7489,-17.82656 -9.7489,-40.10976 0,-22.56174 9.19182,-40.10976 9.47036,-17.82656 25.90422,-27.57546 16.7124,-10.02744 37.88144,-10.02744 z m 0,19.21926 q -21.16904,0 -35.09604,13.09138 -13.927,13.09138 -16.99094,34.53896 h 101.94564 q -2.22832,-21.44758 -15.59824,-34.53896 -13.36992,-13.09138 -34.26042,-13.09138 z"
           style="font-family:Comfortaa;-inkscape-font-specification:Comfortaa;fill:#003aa6;fill-opacity:1"
           id="path288693" />
      </g>
      <g
         aria-label=".jl"
         transform="scale(0.99932376,1.0006767)"
         id="text54137"
         style="font-size:276.437px;line-height:1.25;font-family:Comfortaa;-inkscape-font-specification:Comfortaa;fill:#003aa6;fill-opacity:1;stroke-width:0.938135px">
        <path
           d="m 953.09574,1001.8242 q -6.63449,0 -11.33392,-4.69945 -4.69943,-4.69943 -4.69943,-11.33392 0,-6.91093 4.69943,-11.61035 4.97587,-4.69943 11.33392,-4.69943 6.63449,0 11.33391,4.97586 4.69943,4.69943 4.69943,11.33392 0,6.63449 -4.69943,11.33392 -4.69942,4.69945 -11.33391,4.69945 z"
           id="path93907"
           style="fill:#003aa6;fill-opacity:1" />
        <path
           d="m 947.10782,1062.0874 c -3.13295,0 -5.71303,-1.0136 -7.74024,-3.0408 -2.0272,-2.0272 -3.0408,-4.6073 -3.0408,-7.7402 0,-3.1329 1.0136,-5.713 3.0408,-7.7402 2.02721,-2.0272 4.60729,-3.0408 7.74024,-3.0408 12.7161,0 23.12856,-4.0544 31.23738,-12.1633 8.10872,-8.1088 12.16308,-18.4291 12.16308,-30.96092 v -140.43 c 0,-3.13295 0.92145,-5.71303 2.76434,-7.74023 2.02716,-2.02721 4.60719,-3.04081 7.74008,-3.04081 3.1329,0 5.713,1.0136 7.7402,3.04081 2.0272,2.0272 3.0408,4.60728 3.0408,7.74023 v 140.43 c 0,12.53182 -2.7644,23.68142 -8.2931,33.44892 -5.52867,9.7674 -13.17663,17.4155 -22.94387,22.9442 -9.76746,5.5287 -20.9171,8.2931 -33.44891,8.2931 z m 38.70112,-259.85075 c 0.34085,-8.77709 7.15156,-14.85013 15.20376,-14.92759 8.7239,0.40256 14.8199,7.36029 14.9276,14.92759 -3.7233,21.93946 -29.45082,16.69735 -30.13136,0 z"
           id="path93909"
           sodipodi:nodetypes="sssssssscssssssscccc"
           style="fill:#003aa6;fill-opacity:1" />
        <path
           d="m 1077.9556,997.40118 q -16.8626,0 -27.6437,-13.26897 -10.5046,-13.54542 -10.5046,-34.55463 v -157.5691 q 0,-4.69942 3.0408,-7.46379 3.0408,-3.04081 7.4638,-3.04081 4.6995,0 7.4638,3.04081 3.0408,2.76437 3.0408,7.46379 v 157.5691 q 0,11.88679 4.6995,19.35059 4.9758,7.4638 12.4396,7.4638 h 6.911 q 4.1465,0 6.6344,3.04081 2.488,2.76437 2.488,7.4638 0,4.69943 -3.5937,7.74023 -3.3172,2.76437 -8.846,2.76437 z"
           id="path93911"
           style="fill:#003aa6;fill-opacity:1" />
      </g>
    </g>
  </g>
</svg>
